<?xml version="1.0" encoding="UTF-8" standalone="no"?>
<!-- Created with Inkscape (http://www.inkscape.org/) -->

<svg
   xmlns:dc="http://purl.org/dc/elements/1.1/"
   xmlns:cc="http://creativecommons.org/ns#"
   xmlns:rdf="http://www.w3.org/1999/02/22-rdf-syntax-ns#"
   xmlns:svg="http://www.w3.org/2000/svg"
   xmlns="http://www.w3.org/2000/svg"
   xmlns:sodipodi="http://sodipodi.sourceforge.net/DTD/sodipodi-0.dtd"
   xmlns:inkscape="http://www.inkscape.org/namespaces/inkscape"
   width="210mm"
   height="100mm"
   viewBox="0 0 210 100"
   version="1.1"
   id="svg8"
   inkscape:version="0.92.3 (2405546, 2018-03-11)"
   sodipodi:docname="Hyphen.svg">
  <defs
     id="defs2" />
  <sodipodi:namedview
     id="base"
     pagecolor="#ffffff"
     bordercolor="#666666"
     borderopacity="1.0"
     inkscape:pageopacity="0.0"
     inkscape:pageshadow="2"
     inkscape:zoom="0.98994949"
     inkscape:cx="671.17108"
     inkscape:cy="374.56267"
     inkscape:document-units="mm"
     inkscape:current-layer="layer1"
     showgrid="false"
     inkscape:window-width="1920"
     inkscape:window-height="1017"
     inkscape:window-x="-8"
     inkscape:window-y="-8"
     inkscape:window-maximized="1" />
  <metadata
     id="metadata5">
    <rdf:RDF>
      <cc:Work
         rdf:about="">
        <dc:format>image/svg+xml</dc:format>
        <dc:type
           rdf:resource="http://purl.org/dc/dcmitype/StillImage" />
        <dc:title></dc:title>
      </cc:Work>
    </rdf:RDF>
  </metadata>
  <g
     inkscape:label="Layer 1"
     inkscape:groupmode="layer"
     id="layer1"
     transform="translate(0,-197)">
    <g
       id="g21"
       transform="translate(-39.201155,50.809722)">
      <path
         style="fill:#e9deb6;stroke-width:0.0674728"
         d="m 111.20628,217.45321 c -1.49648,-0.24299 -2.84543,-0.75179 -3.97884,-1.50075 -0.47473,-0.31369 -1.25891,-0.99892 -1.25891,-1.10004 0,-0.13821 2.32359,-4.46032 2.42791,-4.51615 0.064,-0.0343 0.31296,-0.0824 0.55319,-0.10705 0.41678,-0.0427 0.44738,-0.0356 0.66769,0.15505 1.2467,1.0788 3.10819,1.51382 4.40368,1.02911 0.7603,-0.28446 1.4747,-1.14413 2.08223,-2.50563 l 0.32652,-0.73175 -0.23037,-0.55638 c -0.12671,-0.30601 -2.31348,-5.51343 -4.85951,-11.57205 -2.54602,-6.05862 -4.62914,-11.08606 -4.62914,-11.17209 0,-0.086 0.11498,-0.32101 0.25551,-0.52218 l 0.25552,-0.36575 2.99228,-0.0176 c 1.80899,-0.0106 3.02269,0.008 3.06917,0.0462 0.0423,0.0351 1.54874,3.64794 3.34767,8.02853 1.79893,4.3806 3.29524,7.95722 3.32514,7.94805 0.0299,-0.009 1.52313,-3.56856 3.31829,-7.90975 1.79516,-4.34119 3.29668,-7.9462 3.33672,-8.01114 0.0674,-0.10939 0.2787,-0.11808 2.86983,-0.11808 h 2.79704 l 0.27915,0.41106 c 0.2036,0.29982 0.27095,0.4596 0.24886,0.59039 -0.0524,0.31036 -11.03974,26.45819 -11.43036,27.20218 -1.558,2.96739 -3.52968,4.60678 -6.26445,5.20868 -0.81623,0.17965 -3.03062,0.22904 -3.90482,0.0871 z m 24.22336,-0.56979 -0.31286,-0.33447 v -15.9631 -15.96309 l 0.31286,-0.33448 0.31286,-0.33447 h 2.61298 2.61297 l 0.31286,0.33447 0.31286,0.33448 v 0.65034 0.65035 l 0.3205,-0.24412 c 1.26724,-0.96524 2.89768,-1.63051 4.63946,-1.89303 0.89138,-0.13435 2.77626,-0.1332 3.74765,0.002 2.67899,0.37365 4.87039,1.44999 6.71322,3.29728 1.35778,1.36107 2.25438,2.82612 2.85827,4.67044 0.49239,1.50377 0.67935,2.77526 0.68021,4.62591 0.002,3.94591 -1.26124,7.12787 -3.78005,9.52284 -1.80429,1.71559 -4.13824,2.76926 -6.8383,3.08719 -0.98219,0.11565 -3.07063,0.043 -3.89845,-0.13557 -1.34069,-0.28925 -2.4601,-0.75777 -3.54616,-1.48423 -0.33747,-0.22573 -0.63166,-0.41042 -0.65376,-0.41042 -0.0221,0 -0.0402,2.17494 -0.0402,4.83319 v 4.83318 l -0.29475,0.29475 -0.29475,0.29475 h -2.73229 -2.7323 z m 13.4821,-14.00481 c 2.11315,-0.36851 3.74899,-1.79895 4.46535,-3.90467 0.74087,-2.17779 0.45577,-4.96619 -0.68322,-6.68216 -1.10519,-1.66504 -2.81572,-2.55764 -4.8922,-2.55288 -1.30189,0.003 -2.32362,0.2856 -3.27403,0.9056 -0.9783,0.63821 -1.53441,1.28122 -2.06212,2.3844 -1.25924,2.63241 -0.83743,6.17478 0.96464,8.1012 1.37101,1.46562 3.39733,2.11197 5.48158,1.74851 z m 54.40488,6.07171 c -2.1929,-0.299 -4.12001,-1.00245 -5.80201,-2.11791 -0.84108,-0.55777 -2.156,-1.78934 -2.74496,-2.57094 -1.55303,-2.06104 -2.36795,-4.41395 -2.53492,-7.31915 -0.0868,-1.50987 0.18643,-3.53973 0.67658,-5.02672 0.31176,-0.94577 1.07009,-2.44973 1.63168,-3.23601 1.61005,-2.25418 4.01347,-3.89593 6.71867,-4.58944 1.31386,-0.33682 1.64916,-0.3727 3.45332,-0.36955 1.56463,0.003 1.74802,0.016 2.53168,0.18282 2.30863,0.49151 4.2306,1.4809 5.7849,2.97797 2.06694,1.99081 3.29661,4.6085 3.66436,7.80059 0.0841,0.72979 0.0545,3.69627 -0.0392,3.9303 -0.0447,0.11159 -0.5242,0.11807 -8.74006,0.11807 -4.98914,0 -8.70856,0.0255 -8.72981,0.0599 -0.0617,0.0999 0.34351,1.00079 0.67319,1.4967 1.0384,1.56198 2.71474,2.47806 4.93374,2.69618 0.82204,0.0808 1.96545,0.0101 2.738,-0.1693 1.25805,-0.29215 2.32441,-0.86078 3.26598,-1.74158 l 0.44725,-0.41838 0.47361,0.0193 c 0.26048,0.0106 0.50117,0.0363 0.53485,0.0571 0.13334,0.0824 3.15591,3.75262 3.15591,3.83212 0,0.0467 -0.19193,0.30993 -0.42651,0.58485 -1.8346,2.15015 -4.50427,3.47996 -7.70396,3.8375 -0.84015,0.0939 -3.16982,0.0736 -3.96233,-0.0344 z m 6.82992,-15.34636 c 0,-0.0734 -0.0772,-0.33905 -0.17155,-0.59039 -0.90372,-2.40733 -3.27372,-3.80029 -5.99136,-3.52141 -1.78063,0.18273 -3.18717,1.01019 -4.13138,2.4305 -0.34031,0.5119 -0.79966,1.57586 -0.74352,1.72217 0.0297,0.0773 0.93814,0.0925 5.53666,0.0925 5.43499,0 5.50115,-0.002 5.50115,-0.13341 z m -166.221608,15.0285 c -0.01772,-0.0466 -0.02444,-7.58442 -0.01493,-16.7506 l 0.01729,-16.66578 h 4.520678 4.520678 v 1.75429 1.7543 l -2.833858,0.0337 -2.833858,0.0337 v 13.19093 13.19093 l 2.833858,0.0337 2.833858,0.0337 v 1.72055 1.72056 l -4.505744,0.0173 c -3.568858,0.0137 -4.512444,-2.7e-4 -4.537966,-0.0675 z m 23.479721,-0.001 c -0.01817,-0.0473 -0.02489,-0.82941 -0.01493,-1.7379 l 0.0181,-1.65181 2.833858,-0.0337 2.833858,-0.0337 v -13.19093 -13.19093 l -2.833858,-0.0337 -2.833858,-0.0337 v -1.7543 -1.75429 h 4.520678 4.520678 v 16.73326 16.73325 l -4.505744,0.0173 c -3.603905,0.0139 -4.512356,1.3e-4 -4.538781,-0.0687 z m 14.249164,-0.24934 -0.312861,-0.33447 V 191.78092 175.5142 l 0.312861,-0.33448 0.31286,-0.33447 h 2.732294 2.732294 l 0.294749,0.29475 0.29475,0.29475 v 5.09183 c 0,2.80051 0.01788,5.10971 0.03974,5.13157 0.02186,0.0219 0.241987,-0.0907 0.489178,-0.2501 0.928867,-0.59902 1.9867,-1.05855 3.080879,-1.33836 1.216724,-0.31115 1.599456,-0.3518 3.306168,-0.35113 1.413359,5.4e-4 1.715712,0.0201 2.376918,0.15357 3.862943,0.77979 6.464003,3.29527 7.375533,7.13286 0.36722,1.54603 0.35774,1.31247 0.38413,9.4625 l 0.0245,7.57326 -0.31609,0.33792 -0.31609,0.33793 h -2.73229 -2.732296 l -0.294748,-0.29475 -0.294748,-0.29475 -6.75e-4,-6.43566 c -6.74e-4,-3.85547 -0.02859,-6.75356 -0.07026,-7.22858 -0.219894,-2.50639 -1.229463,-3.92889 -3.158058,-4.44977 -0.801509,-0.21647 -2.310694,-0.20042 -3.19701,0.034 -2.360572,0.62436 -3.656123,2.40543 -3.895688,5.35566 -0.0402,0.49484 -0.06912,3.33552 -0.06912,6.78766 v 5.93669 l -0.29475,0.29475 -0.294749,0.29475 H 84.698944 81.96665 Z m 83.126493,0 -0.31286,-0.33447 V 191.78092 175.5142 l 0.31286,-0.33448 0.31287,-0.33447 h 2.73229 2.73229 l 0.29475,0.29475 0.29475,0.29475 v 5.09183 c 0,2.80051 0.0179,5.10971 0.0397,5.13157 0.0219,0.0219 0.24199,-0.0907 0.48918,-0.2501 0.92886,-0.59902 1.9867,-1.05855 3.08088,-1.33836 1.21672,-0.31115 1.59945,-0.3518 3.30616,-0.35113 1.41336,5.4e-4 1.71572,0.0201 2.37692,0.15357 3.86295,0.77979 6.46401,3.29527 7.37553,7.13286 0.36723,1.54603 0.35775,1.31247 0.38414,9.4625 l 0.0245,7.57326 -0.31609,0.33792 -0.31609,0.33793 h -2.73229 -2.7323 l -0.29475,-0.29475 -0.29475,-0.29475 -6.7e-4,-6.43566 c -6.8e-4,-3.85547 -0.0286,-6.75356 -0.0703,-7.22858 -0.2199,-2.50639 -1.22946,-3.92889 -3.15806,-4.44977 -0.80151,-0.21647 -2.31069,-0.20042 -3.19701,0.034 -2.36057,0.62436 -3.65612,2.40543 -3.89569,5.35566 -0.0402,0.49484 -0.0691,3.33552 -0.0691,6.78766 v 5.93669 l -0.29475,0.29475 -0.29475,0.29475 h -2.73229 -2.73229 z m 56.27232,0 -0.31286,-0.33447 v -11.71231 -11.71231 l 0.31286,-0.33448 0.31287,-0.33447 h 2.61297 2.61297 l 0.31286,0.33447 0.31286,0.33448 v 0.64103 0.64103 l 0.63076,-0.42765 c 1.39756,-0.94754 2.97481,-1.50186 4.92768,-1.73181 0.99302,-0.11693 3.06343,-0.0461 3.97314,0.13588 3.81795,0.76382 6.43112,3.30016 7.33925,7.12348 0.36723,1.54603 0.35775,1.31247 0.38414,9.4625 l 0.0245,7.57326 -0.31609,0.33792 -0.31609,0.33793 h -2.73229 -2.7323 l -0.29475,-0.29475 -0.29475,-0.29475 -6.7e-4,-6.43566 c -6.8e-4,-3.85547 -0.0286,-6.75356 -0.0703,-7.22858 -0.2199,-2.50639 -1.22946,-3.92889 -3.15806,-4.44977 -0.80151,-0.21647 -2.31069,-0.20042 -3.19701,0.034 -2.36057,0.62436 -3.65612,2.40543 -3.89569,5.35566 -0.0402,0.49484 -0.0691,3.33552 -0.0691,6.78766 v 5.93669 l -0.29475,0.29475 -0.29475,0.29475 h -2.73229 -2.73229 z M 52.897954,193.65211 c -0.01812,-0.0472 -0.02481,-0.84438 -0.01487,-1.77146 l 0.01808,-1.68561 h 7.287063 7.287063 v 1.7543 1.75429 l -7.272196,0.0172 c -5.836656,0.0138 -7.278701,2e-4 -7.305145,-0.0687 z"
         id="path35"
         inkscape:connector-curvature="0" />
      <path
         style="fill:#d8c276;stroke-width:0.0674728"
         d="m 111.80493,217.48583 c -1.68167,-0.19047 -3.23732,-0.71681 -4.43844,-1.50169 -0.58771,-0.38404 -1.33049,-1.02449 -1.33049,-1.14719 0,-0.078 2.19383,-4.2759 2.30691,-4.41427 0.0641,-0.0785 0.80153,-0.20043 0.98878,-0.16352 0.0499,0.01 0.25671,0.15309 0.45959,0.31833 0.96399,0.78518 2.44931,1.21887 3.56552,1.04106 0.88894,-0.1416 1.52155,-0.5605 2.07319,-1.37282 0.3413,-0.5026 0.99539,-1.85244 0.9962,-2.05586 6.8e-4,-0.0855 -2.18847,-5.365 -4.86404,-11.73234 -4.21456,-10.02986 -4.85433,-11.59607 -4.78735,-11.71985 0.0425,-0.0786 0.18244,-0.2871 0.31091,-0.46337 l 0.23359,-0.3205 h 2.93286 2.93285 l 0.0992,0.15181 c 0.0546,0.0835 1.55675,3.6972 3.3382,8.03044 1.78145,4.33324 3.25985,7.91236 3.28532,7.95359 0.0319,0.0516 0.0632,0.0448 0.10063,-0.0221 0.0298,-0.0533 1.51581,-3.63247 3.30213,-7.95359 1.78631,-4.32111 3.2917,-7.92489 3.34531,-8.00839 l 0.0974,-0.15181 h 2.70043 2.70042 l 0.15441,0.1544 c 0.0849,0.0849 0.23557,0.29291 0.33478,0.4622 l 0.18038,0.30779 -5.5232,13.18418 c -3.03775,7.2513 -5.68312,13.50299 -5.8786,13.89264 -1.07982,2.15245 -2.51412,3.74001 -4.15929,4.60372 -0.6468,0.33957 -1.74262,0.69808 -2.5226,0.8253 -0.80969,0.13206 -2.23225,0.1814 -2.93506,0.10179 z m 23.7138,-0.58079 -0.33447,-0.31286 v -16.00633 -16.00632 l 0.33447,-0.31286 0.33447,-0.31286 h 2.50902 2.50903 l 0.32773,0.32772 0.32772,0.32773 v 0.68437 c 0,0.3764 0.0133,0.68436 0.0296,0.68436 0.0163,0 0.26429,-0.16835 0.55107,-0.3741 1.02354,-0.73436 1.99443,-1.18994 3.22335,-1.51252 1.14395,-0.30028 1.71354,-0.36717 3.11191,-0.36548 2.15883,0.003 3.78371,0.37175 5.60024,1.27227 3.49742,1.73379 5.71237,4.93594 6.34837,9.17778 0.1657,1.10519 0.16775,3.27421 0.004,4.35199 -0.42158,2.77666 -1.49872,5.09884 -3.19029,6.87788 -2.05597,2.16228 -4.6226,3.33367 -7.87374,3.59352 -2.53941,0.20296 -4.97934,-0.40711 -6.92398,-1.73126 -0.30169,-0.20543 -0.56254,-0.37351 -0.57965,-0.37351 -0.0171,0 -0.0311,2.17528 -0.0311,4.83395 v 4.83394 l -0.32772,0.32773 -0.32773,0.32772 h -2.64397 -2.64397 l -0.33447,-0.31286 z m 13.65567,-14.03043 c 1.58991,-0.33299 2.96995,-1.35923 3.78258,-2.81284 0.31117,-0.55659 0.68607,-1.70082 0.78632,-2.39988 0.13114,-0.91442 0.0499,-2.59431 -0.16532,-3.41848 -0.63247,-2.42199 -2.28208,-4.01915 -4.60396,-4.45754 -0.86588,-0.16349 -2.13988,-0.10453 -2.95705,0.13684 -2.03834,0.60207 -3.48893,2.14736 -4.06045,4.32552 -0.23691,0.90291 -0.30093,2.64763 -0.13104,3.57124 0.40794,2.21787 1.58246,3.84123 3.3667,4.65326 1.19201,0.5425 2.62184,0.68679 3.98222,0.40188 z m 54.83212,6.10982 c -3.86798,-0.36587 -7.03929,-1.99184 -9.14264,-4.68757 -2.36549,-3.03168 -3.1902,-7.43626 -2.15616,-11.51552 0.76847,-3.03162 2.63154,-5.60227 5.25998,-7.25767 1.04478,-0.658 2.74191,-1.31432 4.05656,-1.56876 3.68945,-0.71405 7.37611,0.0911 10.11582,2.20923 2.7701,2.14164 4.36054,5.45652 4.58852,9.56367 0.0503,0.90535 -0.0662,2.77369 -0.18156,2.91268 -0.0614,0.074 -1.61189,0.0899 -8.77485,0.0899 h -8.70028 l 0.0462,0.15182 c 0.1041,0.34199 0.50294,1.13786 0.75647,1.50949 0.96779,1.41861 2.5617,2.33433 4.51782,2.59554 0.91067,0.12161 2.46528,0.0443 3.26262,-0.16227 1.2729,-0.32976 2.18623,-0.82054 3.15161,-1.6935 0.47736,-0.43166 0.5018,-0.44437 0.85475,-0.44437 0.19985,0 0.41431,0.0196 0.4766,0.0435 0.11881,0.0456 3.11324,3.59594 3.18032,3.77075 0.0913,0.23785 -1.22889,1.61259 -2.25041,2.34346 -1.44111,1.03106 -3.34418,1.75572 -5.35493,2.03907 -0.93621,0.13193 -2.83151,0.18338 -3.70645,0.10063 z m 6.20749,-15.33771 c 0,-0.14837 -0.23855,-0.79656 -0.43899,-1.19285 -0.71392,-1.41144 -1.82649,-2.33441 -3.38621,-2.80915 -0.5368,-0.16339 -0.70193,-0.18141 -1.70757,-0.18638 -1.29205,-0.006 -1.69364,0.0735 -2.66517,0.53 -0.94715,0.44507 -1.66027,1.07381 -2.2456,1.97988 -0.26677,0.41297 -0.632,1.21049 -0.72522,1.5836 l -0.0464,0.18555 h 5.60756 c 4.64909,0 5.60755,-0.0155 5.60755,-0.0907 z M 81.742903,208.40347 81.408429,208.09061 V 191.78065 175.4707 l 0.334474,-0.31286 0.334473,-0.31286 h 2.643969 2.643969 l 0.327725,0.32773 0.327725,0.32772 v 5.13757 c 0,2.82567 0.01068,5.13758 0.02373,5.13758 0.01305,0 0.233183,-0.13889 0.489178,-0.30863 3.124407,-2.07175 8.097106,-2.34994 11.454094,-0.64079 0.883574,0.44985 1.444784,0.85986 2.172244,1.58699 1.55442,1.55372 2.49615,3.71053 2.79173,6.39381 0.0468,0.42464 0.0722,3.22897 0.0722,7.96942 v 7.31423 l -0.33448,0.31286 -0.33446,0.31286 h -2.63827 -2.638252 l -0.316569,-0.29907 -0.316569,-0.29908 -0.03843,-7.1398 c -0.04169,-7.74678 -0.0235,-7.37868 -0.418338,-8.46643 -0.448782,-1.23639 -1.283016,-2.05742 -2.50675,-2.46709 -0.512807,-0.17167 -0.618962,-0.18259 -1.793319,-0.18452 -1.104375,-0.002 -1.310464,0.0158 -1.78803,0.15298 -1.799567,0.51687 -2.929975,1.63085 -3.504798,3.45387 -0.367268,1.16478 -0.374059,1.31391 -0.37449,8.22474 l -4.05e-4,6.36895 -0.327725,0.32772 -0.327725,0.32773 h -2.643969 -2.643969 l -0.334473,-0.31286 z m 83.126497,0 -0.33447,-0.31286 V 191.78065 175.4707 l 0.33447,-0.31286 0.33447,-0.31286 h 2.64397 2.64397 l 0.32773,0.32773 0.32772,0.32772 v 5.13757 c 0,2.82567 0.0107,5.13758 0.0237,5.13758 0.0131,0 0.23319,-0.13889 0.48918,-0.30863 3.12441,-2.07175 8.09711,-2.34994 11.45409,-0.64079 0.88357,0.44985 1.44479,0.85986 2.17224,1.58699 1.55442,1.55372 2.49615,3.71053 2.79173,6.39381 0.0468,0.42464 0.0722,3.22897 0.0722,7.96942 v 7.31423 l -0.33448,0.31286 -0.33447,0.31286 h -2.63826 -2.63825 l -0.31657,-0.29907 -0.31657,-0.29908 -0.0384,-7.1398 c -0.0417,-7.74678 -0.0235,-7.37868 -0.41834,-8.46643 -0.44878,-1.23639 -1.28301,-2.05742 -2.50674,-2.46709 -0.51281,-0.17167 -0.61897,-0.18259 -1.79332,-0.18452 -1.10438,-0.002 -1.31047,0.0158 -1.78803,0.15298 -1.79957,0.51687 -2.92998,1.63085 -3.5048,3.45387 -0.36727,1.16478 -0.37406,1.31391 -0.37449,8.22474 l -6.8e-4,6.36895 -0.32772,0.32772 -0.32773,0.32773 h -2.64397 -2.64397 l -0.33446,-0.31286 z m 56.27232,0 -0.33447,-0.31286 v -11.75554 -11.75554 l 0.33447,-0.31286 0.33447,-0.31286 h 2.50902 2.50903 l 0.32773,0.32772 0.32772,0.32773 v 0.68437 c 0,0.3764 0.0133,0.68436 0.0296,0.68436 0.0163,0 0.2668,-0.17022 0.55665,-0.37827 3.44744,-2.47443 9.35929,-2.52948 12.7585,-0.11879 1.06832,0.75764 2.24808,2.18792 2.80668,3.40265 0.52548,1.14273 0.89548,2.52605 1.0494,3.92338 0.0468,0.42464 0.0722,3.22897 0.0722,7.96942 v 7.31423 l -0.33448,0.31286 -0.33447,0.31286 h -2.63826 -2.63825 l -0.31657,-0.29907 -0.31657,-0.29908 -0.0384,-7.1398 c -0.0417,-7.74678 -0.0235,-7.37868 -0.41834,-8.46643 -0.44997,-1.23967 -1.29307,-2.06757 -2.50674,-2.46156 -0.44779,-0.14536 -0.71368,-0.18277 -1.4897,-0.2096 -1.06331,-0.0368 -1.69367,0.0384 -2.45852,0.29325 -1.50113,0.50012 -2.59368,1.6444 -3.11292,3.2603 -0.39469,1.22832 -0.39906,1.31925 -0.3995,8.29759 l -6.8e-4,6.36895 -0.32772,0.32772 -0.32773,0.32773 h -2.64397 -2.64397 l -0.33447,-0.31286 z M 43.992408,208.565 c -0.01772,-0.0467 -0.02445,-7.55407 -0.01494,-16.68314 l 0.01729,-16.59831 h 4.453206 4.453205 v 1.68682 1.68682 l -2.833858,0.0337 -2.833858,0.0337 v 13.2584 13.25841 l 2.833858,0.0337 2.833858,0.0337 v 1.65308 1.65309 l -4.438268,0.0174 c -3.514871,0.0137 -4.444973,-2.7e-4 -4.470493,-0.0675 z m 23.479674,-0.001 c -0.0182,-0.0474 -0.02492,-0.79912 -0.01494,-1.67044 l 0.01815,-1.58421 2.833858,-0.0337 2.833857,-0.0337 v -13.25841 -13.2584 l -2.833857,-0.0337 -2.833858,-0.0337 v -1.68682 -1.68682 h 4.453205 4.453205 v 16.66579 16.66578 l -4.438268,0.0174 c -3.552631,0.0139 -4.444871,1.4e-4 -4.471355,-0.0689 z M 52.965383,193.58452 c -0.01815,-0.0473 -0.02484,-0.81408 -0.01487,-1.70399 l 0.01813,-1.61801 h 7.21959 7.21959 v 1.68682 1.68682 l -7.204723,0.0172 c -5.787286,0.0138 -7.211213,2.7e-4 -7.237716,-0.0688 z"
         id="path33"
         inkscape:connector-curvature="0" />
      <path
         style="fill:#9f9f9f;stroke-width:0.0674728"
         d="m 111.80493,217.48583 c -1.68167,-0.19047 -3.23732,-0.71681 -4.43844,-1.50169 -0.58771,-0.38404 -1.33049,-1.02449 -1.33049,-1.14719 0,-0.078 2.19383,-4.2759 2.30691,-4.41427 0.0641,-0.0785 0.80153,-0.20043 0.98878,-0.16352 0.0499,0.01 0.25671,0.15309 0.45959,0.31833 0.96399,0.78518 2.44931,1.21887 3.56552,1.04106 0.88894,-0.1416 1.52155,-0.5605 2.07319,-1.37282 0.3413,-0.5026 0.99539,-1.85244 0.9962,-2.05586 6.8e-4,-0.0855 -2.18847,-5.365 -4.86404,-11.73234 -4.21456,-10.02986 -4.85433,-11.59607 -4.78735,-11.71985 0.0425,-0.0786 0.18244,-0.2871 0.31091,-0.46337 l 0.23359,-0.3205 h 2.93286 2.93285 l 0.0992,0.15181 c 0.0546,0.0835 1.55675,3.6972 3.3382,8.03044 1.78145,4.33324 3.25985,7.91236 3.28532,7.95359 0.0319,0.0516 0.0632,0.0448 0.10063,-0.0221 0.0298,-0.0533 1.51581,-3.63247 3.30213,-7.95359 1.78631,-4.32111 3.2917,-7.92489 3.34531,-8.00839 l 0.0974,-0.15181 h 2.70043 2.70042 l 0.15441,0.1544 c 0.0849,0.0849 0.23557,0.29291 0.33478,0.4622 l 0.18038,0.30779 -5.5232,13.18418 c -3.03775,7.2513 -5.68312,13.50299 -5.8786,13.89264 -1.07982,2.15245 -2.51412,3.74001 -4.15929,4.60372 -0.6468,0.33957 -1.74262,0.69808 -2.5226,0.8253 -0.80969,0.13206 -2.23225,0.1814 -2.93506,0.10179 z m 23.7138,-0.58079 -0.33447,-0.31286 v -16.00633 -16.00632 l 0.33447,-0.31286 0.33447,-0.31286 h 2.50902 2.50903 l 0.32773,0.32772 0.32772,0.32773 v 0.68437 c 0,0.3764 0.0133,0.68436 0.0296,0.68436 0.0163,0 0.26429,-0.16835 0.55107,-0.3741 1.02354,-0.73436 1.99443,-1.18994 3.22335,-1.51252 1.14395,-0.30028 1.71354,-0.36717 3.11191,-0.36548 2.15883,0.003 3.78371,0.37175 5.60024,1.27227 3.49742,1.73379 5.71237,4.93594 6.34837,9.17778 0.1657,1.10519 0.16775,3.27421 0.004,4.35199 -0.42158,2.77666 -1.49872,5.09884 -3.19029,6.87788 -2.05597,2.16228 -4.6226,3.33367 -7.87374,3.59352 -2.53941,0.20296 -4.97934,-0.40711 -6.92398,-1.73126 -0.30169,-0.20543 -0.56254,-0.37351 -0.57965,-0.37351 -0.0171,0 -0.0311,2.17528 -0.0311,4.83395 v 4.83394 l -0.32772,0.32773 -0.32773,0.32772 h -2.64397 -2.64397 l -0.33447,-0.31286 z m 13.65567,-14.03043 c 1.58991,-0.33299 2.96995,-1.35923 3.78258,-2.81284 0.31117,-0.55659 0.68607,-1.70082 0.78632,-2.39988 0.13114,-0.91442 0.0499,-2.59431 -0.16532,-3.41848 -0.63247,-2.42199 -2.28208,-4.01915 -4.60396,-4.45754 -0.86588,-0.16349 -2.13988,-0.10453 -2.95705,0.13684 -2.03834,0.60207 -3.48893,2.14736 -4.06045,4.32552 -0.23691,0.90291 -0.30093,2.64763 -0.13104,3.57124 0.40794,2.21787 1.58246,3.84123 3.3667,4.65326 1.19201,0.5425 2.62184,0.68679 3.98222,0.40188 z m 54.83212,6.10982 c -3.86798,-0.36587 -7.03929,-1.99184 -9.14264,-4.68757 -2.36549,-3.03168 -3.1902,-7.43626 -2.15616,-11.51552 0.76847,-3.03162 2.63154,-5.60227 5.25998,-7.25767 1.04478,-0.658 2.74191,-1.31432 4.05656,-1.56876 3.68945,-0.71405 7.37611,0.0911 10.11582,2.20923 2.7701,2.14164 4.36054,5.45652 4.58852,9.56367 0.0503,0.90535 -0.0662,2.77369 -0.18156,2.91268 -0.0614,0.074 -1.61189,0.0899 -8.77485,0.0899 h -8.70028 l 0.0462,0.15182 c 0.1041,0.34199 0.50294,1.13786 0.75647,1.50949 0.96779,1.41861 2.5617,2.33433 4.51782,2.59554 0.91067,0.12161 2.46528,0.0443 3.26262,-0.16227 1.2729,-0.32976 2.18623,-0.82054 3.15161,-1.6935 0.47736,-0.43166 0.5018,-0.44437 0.85475,-0.44437 0.19985,0 0.41431,0.0196 0.4766,0.0435 0.11881,0.0456 3.11324,3.59594 3.18032,3.77075 0.0913,0.23785 -1.22889,1.61259 -2.25041,2.34346 -1.44111,1.03106 -3.34418,1.75572 -5.35493,2.03907 -0.93621,0.13193 -2.83151,0.18338 -3.70645,0.10063 z m 6.20749,-15.33771 c 0,-0.14837 -0.23855,-0.79656 -0.43899,-1.19285 -0.71392,-1.41144 -1.82649,-2.33441 -3.38621,-2.80915 -0.5368,-0.16339 -0.70193,-0.18141 -1.70757,-0.18638 -1.29205,-0.006 -1.69364,0.0735 -2.66517,0.53 -0.94715,0.44507 -1.66027,1.07381 -2.2456,1.97988 -0.26677,0.41297 -0.632,1.21049 -0.72522,1.5836 l -0.0464,0.18555 h 5.60756 c 4.64909,0 5.60755,-0.0155 5.60755,-0.0907 z M 81.742903,208.40347 81.408429,208.09061 V 191.78065 175.4707 l 0.334474,-0.31286 0.334473,-0.31286 h 2.643969 2.643969 l 0.327725,0.32773 0.327725,0.32772 v 5.13757 c 0,2.82567 0.01068,5.13758 0.02373,5.13758 0.01305,0 0.233183,-0.13889 0.489178,-0.30863 3.124407,-2.07175 8.097106,-2.34994 11.454094,-0.64079 0.883574,0.44985 1.444784,0.85986 2.172244,1.58699 1.55442,1.55372 2.49615,3.71053 2.79173,6.39381 0.0468,0.42464 0.0722,3.22897 0.0722,7.96942 v 7.31423 l -0.33448,0.31286 -0.33446,0.31286 h -2.63827 -2.638252 l -0.316569,-0.29907 -0.316569,-0.29908 -0.03843,-7.1398 c -0.04169,-7.74678 -0.0235,-7.37868 -0.418338,-8.46643 -0.448782,-1.23639 -1.283016,-2.05742 -2.50675,-2.46709 -0.512807,-0.17167 -0.618962,-0.18259 -1.793319,-0.18452 -1.104375,-0.002 -1.310464,0.0158 -1.78803,0.15298 -1.799567,0.51687 -2.929975,1.63085 -3.504798,3.45387 -0.367268,1.16478 -0.374059,1.31391 -0.37449,8.22474 l -4.05e-4,6.36895 -0.327725,0.32772 -0.327725,0.32773 h -2.643969 -2.643969 l -0.334473,-0.31286 z m 83.126497,0 -0.33447,-0.31286 V 191.78065 175.4707 l 0.33447,-0.31286 0.33447,-0.31286 h 2.64397 2.64397 l 0.32773,0.32773 0.32772,0.32772 v 5.13757 c 0,2.82567 0.0107,5.13758 0.0237,5.13758 0.0131,0 0.23319,-0.13889 0.48918,-0.30863 3.12441,-2.07175 8.09711,-2.34994 11.45409,-0.64079 0.88357,0.44985 1.44479,0.85986 2.17224,1.58699 1.55442,1.55372 2.49615,3.71053 2.79173,6.39381 0.0468,0.42464 0.0722,3.22897 0.0722,7.96942 v 7.31423 l -0.33448,0.31286 -0.33447,0.31286 h -2.63826 -2.63825 l -0.31657,-0.29907 -0.31657,-0.29908 -0.0384,-7.1398 c -0.0417,-7.74678 -0.0235,-7.37868 -0.41834,-8.46643 -0.44878,-1.23639 -1.28301,-2.05742 -2.50674,-2.46709 -0.51281,-0.17167 -0.61897,-0.18259 -1.79332,-0.18452 -1.10438,-0.002 -1.31047,0.0158 -1.78803,0.15298 -1.79957,0.51687 -2.92998,1.63085 -3.5048,3.45387 -0.36727,1.16478 -0.37406,1.31391 -0.37449,8.22474 l -6.8e-4,6.36895 -0.32772,0.32772 -0.32773,0.32773 h -2.64397 -2.64397 l -0.33446,-0.31286 z m 56.27232,0 -0.33447,-0.31286 v -11.75554 -11.75554 l 0.33447,-0.31286 0.33447,-0.31286 h 2.50902 2.50903 l 0.32773,0.32772 0.32772,0.32773 v 0.68437 c 0,0.3764 0.0133,0.68436 0.0296,0.68436 0.0163,0 0.2668,-0.17022 0.55665,-0.37827 3.44744,-2.47443 9.35929,-2.52948 12.7585,-0.11879 1.06832,0.75764 2.24808,2.18792 2.80668,3.40265 0.52548,1.14273 0.89548,2.52605 1.0494,3.92338 0.0468,0.42464 0.0722,3.22897 0.0722,7.96942 v 7.31423 l -0.33448,0.31286 -0.33447,0.31286 h -2.63826 -2.63825 l -0.31657,-0.29907 -0.31657,-0.29908 -0.0384,-7.1398 c -0.0417,-7.74678 -0.0235,-7.37868 -0.41834,-8.46643 -0.44997,-1.23967 -1.29307,-2.06757 -2.50674,-2.46156 -0.44779,-0.14536 -0.71368,-0.18277 -1.4897,-0.2096 -1.06331,-0.0368 -1.69367,0.0384 -2.45852,0.29325 -1.50113,0.50012 -2.59368,1.6444 -3.11292,3.2603 -0.39469,1.22832 -0.39906,1.31925 -0.3995,8.29759 l -6.8e-4,6.36895 -0.32772,0.32772 -0.32773,0.32773 h -2.64397 -2.64397 l -0.33447,-0.31286 z M 44.028495,191.94934 v -16.63205 h 4.419469 4.419468 v 1.65235 1.65235 l -2.850726,0.0176 -2.850726,0.0176 v 13.32588 13.32588 l 2.850726,0.0176 2.850726,0.0176 v 1.61862 1.61861 h -4.419468 -4.419469 z m 23.480536,15.01343 v -1.61862 l 2.850726,-0.0176 2.850726,-0.0176 v -13.32588 -13.32588 l -2.850726,-0.0176 -2.850726,-0.0176 v -1.65235 -1.65235 h 4.419469 4.419469 v 16.63205 16.63204 H 71.9285 67.509031 Z M 53.002378,191.94934 v -1.65309 h 7.185854 7.185854 v 1.65309 1.65308 h -7.185854 -7.185854 z"
         id="path31"
         inkscape:connector-curvature="0" />
      <path
         style="fill:#cbad46;stroke-width:0.0674728"
         d="m 111.70372,217.41627 c -1.3342,-0.14745 -3.02635,-0.69978 -4.07338,-1.32959 -0.53908,-0.32427 -1.3577,-0.97151 -1.48134,-1.17121 -0.0529,-0.0854 0.18567,-0.59118 1.08124,-2.29266 1.11584,-2.11996 1.15568,-2.18439 1.37748,-2.22749 0.72287,-0.14048 0.67597,-0.14824 1.07231,0.17741 1.0059,0.82646 2.42413,1.26184 3.62091,1.11158 1.19922,-0.15058 1.9364,-0.79729 2.72272,-2.38859 0.25884,-0.52383 0.47063,-1.02118 0.47063,-1.10522 0,-0.084 -2.15975,-5.29081 -4.79943,-11.57062 -2.63969,-6.2798 -4.82815,-11.49953 -4.86326,-11.5994 -0.0549,-0.15624 -0.0251,-0.23861 0.2138,-0.59038 l 0.27761,-0.40882 h 2.92857 c 2.26921,0 2.94068,0.019 2.98233,0.0843 0.0296,0.0464 1.53158,3.67706 3.33779,8.06815 1.80622,4.3911 3.30247,8.00224 3.32499,8.02477 0.0225,0.0225 0.0711,0.0108 0.1079,-0.026 0.0368,-0.0368 1.54027,-3.62904 3.34099,-7.98273 1.80073,-4.35369 3.30449,-7.97266 3.34169,-8.04216 0.0644,-0.12028 0.19766,-0.12638 2.76417,-0.12638 3.04252,0 2.77458,-0.0478 3.12955,0.55794 l 0.17686,0.30178 -5.50505,13.1426 c -3.02777,7.22843 -5.68279,13.49717 -5.90003,13.93054 -1.10062,2.19561 -2.71268,3.91117 -4.40611,4.68898 -0.64173,0.29475 -1.47405,0.55208 -2.19513,0.67864 -0.73627,0.12923 -2.29596,0.1776 -3.04781,0.0945 z m 23.85013,-0.54433 -0.30212,-0.27848 v -16.00761 -16.0076 l 0.30212,-0.27848 0.30212,-0.27849 h 2.50687 2.50689 l 0.29475,0.29475 0.29475,0.29475 v 0.71734 c 0,0.49837 0.0238,0.71735 0.0781,0.71735 0.043,0 0.23273,-0.11806 0.42171,-0.26236 1.22114,-0.93239 2.68729,-1.56019 4.28121,-1.83319 2.7213,-0.4661 5.50572,-0.0579 7.90143,1.15839 3.66028,1.8583 5.90166,5.42958 6.2838,10.01225 0.17735,2.12684 -0.14339,4.55633 -0.83946,6.3587 -1.29127,3.34353 -3.76413,5.73916 -7.05455,6.83424 -2.50562,0.83389 -5.24921,0.87692 -7.63113,0.11969 -0.79428,-0.25251 -1.93333,-0.82696 -2.58061,-1.30145 -0.26917,-0.19731 -0.51218,-0.34479 -0.54001,-0.32772 -0.0278,0.0171 -0.0506,2.20891 -0.0506,4.87076 v 4.83973 l -0.32281,0.31796 -0.32282,0.31796 h -2.61376 -2.61376 z m 13.8476,-13.99536 c 2.31851,-0.58274 3.93509,-2.46092 4.37318,-5.08087 0.16946,-1.01345 0.1126,-2.62714 -0.12447,-3.53245 -0.60413,-2.30705 -2.09349,-3.86528 -4.26288,-4.46002 -0.77343,-0.21203 -2.44761,-0.20693 -3.23869,0.01 -2.14687,0.58835 -3.62369,2.12621 -4.26198,4.43815 -0.17353,0.62855 -0.1841,0.74832 -0.18391,2.08381 0,1.32654 0.0118,1.45997 0.18205,2.09165 0.21207,0.78683 0.60412,1.64013 1.02377,2.22821 0.36796,0.51566 1.17555,1.27349 1.67755,1.5742 1.38008,0.8267 3.1535,1.06515 4.81538,0.64745 z m 54.87496,6.06541 c -2.82696,-0.27091 -4.77696,-0.91964 -6.78683,-2.25789 -1.01018,-0.67261 -2.31599,-1.97838 -2.9885,-2.9884 -1.0277,-1.54348 -1.62764,-3.04874 -1.97901,-4.96535 -0.11729,-0.63978 -0.14311,-1.05417 -0.14712,-2.36155 -0.004,-1.37735 0.0157,-1.70081 0.15209,-2.46275 0.71982,-4.02294 2.95912,-7.10834 6.41616,-8.84049 4.09686,-2.05272 9.37751,-1.64953 12.97155,0.99041 0.74279,0.54559 1.86797,1.69605 2.43292,2.48757 1.59643,2.23665 2.4569,5.4144 2.31077,8.53373 -0.0261,0.55665 -0.0678,1.13354 -0.0927,1.28198 l -0.0453,0.26989 -8.73659,0.0337 -8.73658,0.0337 0.0188,0.16868 c 0.0103,0.0928 0.15233,0.44362 0.3156,0.77965 1.07978,2.22239 3.30195,3.47093 6.17677,3.47047 2.19081,-3.4e-4 3.84335,-0.61398 5.31178,-1.97236 0.41286,-0.38191 0.4268,-0.38852 0.81907,-0.38852 0.28252,0 0.43936,0.0345 0.53702,0.11807 0.25028,0.21421 3.04822,3.59996 3.04822,3.68861 0,0.14141 -0.91802,1.15955 -1.47449,1.63529 -1.80297,1.54142 -4.20431,2.484 -6.92588,2.71854 -0.75621,0.0652 -2.05791,0.0787 -2.5977,0.0269 z m 6.00276,-15.28897 c -0.003,-0.20998 -0.33365,-1.0282 -0.62366,-1.54429 -0.68544,-1.21978 -1.94947,-2.178 -3.38865,-2.56882 -0.45305,-0.12303 -0.71867,-0.14641 -1.65309,-0.14551 -1.01817,9.8e-4 -1.1649,0.0168 -1.71723,0.1852 -1.55435,0.4739 -2.66477,1.37012 -3.40221,2.74594 -0.29836,0.55663 -0.57347,1.31646 -0.51243,1.41524 0.0245,0.0396 2.1894,0.0641 5.66959,0.0641 h 5.63 l -0.002,-0.15182 z m -128.501148,14.71735 -0.30212,-0.27848 v -16.31124 -16.31123 l 0.30212,-0.27848 0.30212,-0.27849 h 2.618615 2.618615 l 0.31796,0.32282 0.317959,0.32281 v 5.14248 c 0,3.3003 0.0236,5.14249 0.06588,5.14249 0.03623,0 0.271544,-0.13894 0.522915,-0.30876 2.663323,-1.79924 6.84827,-2.28135 10.168445,-1.17142 3.173819,1.061 5.247409,3.53521 5.969059,7.12228 0.26267,1.30566 0.27685,1.78143 0.27685,9.29187 v 7.31487 l -0.30212,0.27848 -0.30212,0.27848 h -2.61861 -2.61862 l -0.317959,-0.32281 -0.317959,-0.32281 -6.75e-4,-6.74497 c -6.75e-4,-7.38601 -0.0062,-7.51173 -0.396288,-8.64345 -0.26286,-0.76261 -0.561542,-1.23678 -1.099746,-1.74587 -0.79713,-0.75401 -1.599159,-1.04082 -3.057982,-1.09357 -3.125901,-0.11301 -5.04198,1.33131 -5.787455,4.36253 -0.13873,0.5641 -0.142664,0.73569 -0.16563,7.22389 l -0.02352,6.64607 -0.315327,0.3205 -0.315327,0.32049 h -2.618615 -2.618616 l -0.302119,-0.27848 z m 83.126498,0 -0.30212,-0.27848 v -16.31124 -16.31123 l 0.30212,-0.27848 0.30212,-0.27849 h 2.61861 2.61862 l 0.31796,0.32282 0.31796,0.32281 v 5.14248 c 0,3.3003 0.0236,5.14249 0.0659,5.14249 0.0362,0 0.27154,-0.13894 0.52291,-0.30876 2.66332,-1.79924 6.84827,-2.28135 10.16844,-1.17142 3.17382,1.061 5.24742,3.53521 5.96907,7.12228 0.26267,1.30566 0.27684,1.78143 0.27684,9.29187 v 7.31487 l -0.30212,0.27848 -0.30211,0.27848 h -2.61862 -2.61862 l -0.31796,-0.32281 -0.31795,-0.32281 -6.8e-4,-6.74497 c -6.7e-4,-7.38601 -0.006,-7.51173 -0.39629,-8.64345 -0.26286,-0.76261 -0.56154,-1.23678 -1.09974,-1.74587 -0.79713,-0.75401 -1.59916,-1.04082 -3.05799,-1.09357 -3.1259,-0.11301 -5.04198,1.33131 -5.78745,4.36253 -0.13873,0.5641 -0.14266,0.73569 -0.16563,7.22389 l -0.0235,6.64607 -0.31533,0.3205 -0.31533,0.32049 h -2.61862 -2.61861 l -0.30212,-0.27848 z m 56.27232,0 -0.30212,-0.27848 v -11.75682 -11.75682 l 0.30212,-0.27848 0.30212,-0.27849 h 2.50688 2.50688 l 0.29475,0.29475 0.29475,0.29475 v 0.71734 c 0,0.42537 0.027,0.71735 0.0664,0.71735 0.0365,0 0.30218,-0.16979 0.59038,-0.37731 2.64337,-1.90335 6.95717,-2.44632 10.37036,-1.30529 3.17382,1.061 5.24742,3.53521 5.96907,7.12228 0.26267,1.30566 0.27684,1.78143 0.27684,9.29187 v 7.31487 l -0.30212,0.27848 -0.30211,0.27848 h -2.61862 -2.61862 l -0.31796,-0.32281 -0.31795,-0.32281 -6.8e-4,-6.74497 c -6.7e-4,-7.38601 -0.006,-7.51173 -0.39629,-8.64345 -0.26286,-0.76261 -0.56154,-1.23678 -1.09974,-1.74587 -0.48533,-0.45907 -1.04113,-0.76389 -1.74986,-0.95968 -0.66932,-0.18489 -2.60077,-0.16295 -3.3284,0.0378 -2.16878,0.59842 -3.47201,2.206 -3.84551,4.74356 -0.0899,0.61068 -0.10556,1.6527 -0.10556,7.01971 v 6.30259 l -0.32281,0.31795 -0.32282,0.31796 h -2.61376 -2.61376 l -0.30212,-0.27848 z M 44.028495,191.94934 v -16.63205 h 4.419469 4.419468 v 1.65235 1.65235 l -2.850726,0.0176 -2.850726,0.0176 v 13.32588 13.32588 l 2.850726,0.0176 2.850726,0.0176 v 1.61862 1.61861 h -4.419468 -4.419469 z m 23.480536,15.01343 v -1.61862 l 2.850726,-0.0176 2.850726,-0.0176 v -13.32588 -13.32588 l -2.850726,-0.0176 -2.850726,-0.0176 v -1.65235 -1.65235 h 4.419469 4.419469 v 16.63205 16.63204 H 71.9285 67.509031 Z M 53.002378,191.94934 v -1.65309 h 7.185854 7.185854 v 1.65309 1.65308 h -7.185854 -7.185854 z"
         id="path29"
         inkscape:connector-curvature="0" />
      <path
         style="fill:#c5a430;stroke-width:0.0674728"
         d="m 111.70372,217.41627 c -1.3342,-0.14745 -3.02635,-0.69978 -4.07338,-1.32959 -0.53908,-0.32427 -1.3577,-0.97151 -1.48134,-1.17121 -0.0529,-0.0854 0.18567,-0.59118 1.08124,-2.29266 1.11584,-2.11996 1.15568,-2.18439 1.37748,-2.22749 0.72287,-0.14048 0.67597,-0.14824 1.07231,0.17741 1.0059,0.82646 2.42413,1.26184 3.62091,1.11158 1.19922,-0.15058 1.9364,-0.79729 2.72272,-2.38859 0.25884,-0.52383 0.47063,-1.02118 0.47063,-1.10522 0,-0.084 -2.15975,-5.29081 -4.79943,-11.57062 -2.63969,-6.2798 -4.82815,-11.49953 -4.86326,-11.5994 -0.0549,-0.15624 -0.0251,-0.23861 0.2138,-0.59038 l 0.27761,-0.40882 h 2.92857 c 2.26921,0 2.94068,0.019 2.98233,0.0843 0.0296,0.0464 1.53158,3.67706 3.33779,8.06815 1.80622,4.3911 3.30247,8.00224 3.32499,8.02477 0.0225,0.0225 0.0711,0.0108 0.1079,-0.026 0.0368,-0.0368 1.54027,-3.62904 3.34099,-7.98273 1.80073,-4.35369 3.30449,-7.97266 3.34169,-8.04216 0.0644,-0.12028 0.19766,-0.12638 2.76417,-0.12638 3.04252,0 2.77458,-0.0478 3.12955,0.55794 l 0.17686,0.30178 -5.50505,13.1426 c -3.02777,7.22843 -5.68279,13.49717 -5.90003,13.93054 -1.10062,2.19561 -2.71268,3.91117 -4.40611,4.68898 -0.64173,0.29475 -1.47405,0.55208 -2.19513,0.67864 -0.73627,0.12923 -2.29596,0.1776 -3.04781,0.0945 z m 23.85013,-0.54433 -0.30212,-0.27848 v -16.00761 -16.0076 l 0.30212,-0.27848 0.30212,-0.27849 h 2.50687 2.50689 l 0.29475,0.29475 0.29475,0.29475 v 0.71734 c 0,0.49837 0.0238,0.71735 0.0781,0.71735 0.043,0 0.23273,-0.11806 0.42171,-0.26236 1.22114,-0.93239 2.68729,-1.56019 4.28121,-1.83319 2.7213,-0.4661 5.50572,-0.0579 7.90143,1.15839 3.66028,1.8583 5.90166,5.42958 6.2838,10.01225 0.17735,2.12684 -0.14339,4.55633 -0.83946,6.3587 -1.29127,3.34353 -3.76413,5.73916 -7.05455,6.83424 -2.50562,0.83389 -5.24921,0.87692 -7.63113,0.11969 -0.79428,-0.25251 -1.93333,-0.82696 -2.58061,-1.30145 -0.26917,-0.19731 -0.51218,-0.34479 -0.54001,-0.32772 -0.0278,0.0171 -0.0506,2.20891 -0.0506,4.87076 v 4.83973 l -0.32281,0.31796 -0.32282,0.31796 h -2.61376 -2.61376 z m 13.8476,-13.99536 c 2.31851,-0.58274 3.93509,-2.46092 4.37318,-5.08087 0.16946,-1.01345 0.1126,-2.62714 -0.12447,-3.53245 -0.60413,-2.30705 -2.09349,-3.86528 -4.26288,-4.46002 -0.77343,-0.21203 -2.44761,-0.20693 -3.23869,0.01 -2.14687,0.58835 -3.62369,2.12621 -4.26198,4.43815 -0.17353,0.62855 -0.1841,0.74832 -0.18391,2.08381 0,1.32654 0.0118,1.45997 0.18205,2.09165 0.21207,0.78683 0.60412,1.64013 1.02377,2.22821 0.36796,0.51566 1.17555,1.27349 1.67755,1.5742 1.38008,0.8267 3.1535,1.06515 4.81538,0.64745 z m 54.87496,6.06541 c -2.82696,-0.27091 -4.77696,-0.91964 -6.78683,-2.25789 -1.01018,-0.67261 -2.31599,-1.97838 -2.9885,-2.9884 -1.0277,-1.54348 -1.62764,-3.04874 -1.97901,-4.96535 -0.11729,-0.63978 -0.14311,-1.05417 -0.14712,-2.36155 -0.004,-1.37735 0.0157,-1.70081 0.15209,-2.46275 0.71982,-4.02294 2.95912,-7.10834 6.41616,-8.84049 4.09686,-2.05272 9.37751,-1.64953 12.97155,0.99041 0.74279,0.54559 1.86797,1.69605 2.43292,2.48757 1.59643,2.23665 2.4569,5.4144 2.31077,8.53373 -0.0261,0.55665 -0.0678,1.13354 -0.0927,1.28198 l -0.0453,0.26989 -8.73659,0.0337 -8.73658,0.0337 0.0188,0.16868 c 0.0103,0.0928 0.15233,0.44362 0.3156,0.77965 1.07978,2.22239 3.30195,3.47093 6.17677,3.47047 2.19081,-3.4e-4 3.84335,-0.61398 5.31178,-1.97236 0.41286,-0.38191 0.4268,-0.38852 0.81907,-0.38852 0.28252,0 0.43936,0.0345 0.53702,0.11807 0.25028,0.21421 3.04822,3.59996 3.04822,3.68861 0,0.14141 -0.91802,1.15955 -1.47449,1.63529 -1.80297,1.54142 -4.20431,2.484 -6.92588,2.71854 -0.75621,0.0652 -2.05791,0.0787 -2.5977,0.0269 z m 6.00276,-15.28897 c -0.003,-0.20998 -0.33365,-1.0282 -0.62366,-1.54429 -0.68544,-1.21978 -1.94947,-2.178 -3.38865,-2.56882 -0.45305,-0.12303 -0.71867,-0.14641 -1.65309,-0.14551 -1.01817,9.8e-4 -1.1649,0.0168 -1.71723,0.1852 -1.55435,0.4739 -2.66477,1.37012 -3.40221,2.74594 -0.29836,0.55663 -0.57347,1.31646 -0.51243,1.41524 0.0245,0.0396 2.1894,0.0641 5.66959,0.0641 h 5.63 l -0.002,-0.15182 z m -128.501148,14.71735 -0.30212,-0.27848 v -16.31124 -16.31123 l 0.30212,-0.27848 0.30212,-0.27849 h 2.618615 2.618615 l 0.31796,0.32282 0.317959,0.32281 v 5.14248 c 0,3.3003 0.0236,5.14249 0.06588,5.14249 0.03623,0 0.271544,-0.13894 0.522915,-0.30876 2.663323,-1.79924 6.84827,-2.28135 10.168445,-1.17142 3.173819,1.061 5.247409,3.53521 5.969059,7.12228 0.26267,1.30566 0.27685,1.78143 0.27685,9.29187 v 7.31487 l -0.30212,0.27848 -0.30212,0.27848 h -2.61861 -2.61862 l -0.317959,-0.32281 -0.317959,-0.32281 -6.75e-4,-6.74497 c -6.75e-4,-7.38601 -0.0062,-7.51173 -0.396288,-8.64345 -0.26286,-0.76261 -0.561542,-1.23678 -1.099746,-1.74587 -0.79713,-0.75401 -1.599159,-1.04082 -3.057982,-1.09357 -3.125901,-0.11301 -5.04198,1.33131 -5.787455,4.36253 -0.13873,0.5641 -0.142664,0.73569 -0.16563,7.22389 l -0.02352,6.64607 -0.315327,0.3205 -0.315327,0.32049 h -2.618615 -2.618616 l -0.302119,-0.27848 z m 83.126498,0 -0.30212,-0.27848 v -16.31124 -16.31123 l 0.30212,-0.27848 0.30212,-0.27849 h 2.61861 2.61862 l 0.31796,0.32282 0.31796,0.32281 v 5.14248 c 0,3.3003 0.0236,5.14249 0.0659,5.14249 0.0362,0 0.27154,-0.13894 0.52291,-0.30876 2.66332,-1.79924 6.84827,-2.28135 10.16844,-1.17142 3.17382,1.061 5.24742,3.53521 5.96907,7.12228 0.26267,1.30566 0.27684,1.78143 0.27684,9.29187 v 7.31487 l -0.30212,0.27848 -0.30211,0.27848 h -2.61862 -2.61862 l -0.31796,-0.32281 -0.31795,-0.32281 -6.8e-4,-6.74497 c -6.7e-4,-7.38601 -0.006,-7.51173 -0.39629,-8.64345 -0.26286,-0.76261 -0.56154,-1.23678 -1.09974,-1.74587 -0.79713,-0.75401 -1.59916,-1.04082 -3.05799,-1.09357 -3.1259,-0.11301 -5.04198,1.33131 -5.78745,4.36253 -0.13873,0.5641 -0.14266,0.73569 -0.16563,7.22389 l -0.0235,6.64607 -0.31533,0.3205 -0.31533,0.32049 h -2.61862 -2.61861 l -0.30212,-0.27848 z m 56.27232,0 -0.30212,-0.27848 v -11.75682 -11.75682 l 0.30212,-0.27848 0.30212,-0.27849 h 2.50688 2.50688 l 0.29475,0.29475 0.29475,0.29475 v 0.71734 c 0,0.42537 0.027,0.71735 0.0664,0.71735 0.0365,0 0.30218,-0.16979 0.59038,-0.37731 2.64337,-1.90335 6.95717,-2.44632 10.37036,-1.30529 3.17382,1.061 5.24742,3.53521 5.96907,7.12228 0.26267,1.30566 0.27684,1.78143 0.27684,9.29187 v 7.31487 l -0.30212,0.27848 -0.30211,0.27848 h -2.61862 -2.61862 l -0.31796,-0.32281 -0.31795,-0.32281 -6.8e-4,-6.74497 c -6.7e-4,-7.38601 -0.006,-7.51173 -0.39629,-8.64345 -0.26286,-0.76261 -0.56154,-1.23678 -1.09974,-1.74587 -0.48533,-0.45907 -1.04113,-0.76389 -1.74986,-0.95968 -0.66932,-0.18489 -2.60077,-0.16295 -3.3284,0.0378 -2.16878,0.59842 -3.47201,2.206 -3.84551,4.74356 -0.0899,0.61068 -0.10556,1.6527 -0.10556,7.01971 v 6.30259 l -0.32281,0.31795 -0.32282,0.31796 h -2.61376 -2.61376 l -0.30212,-0.27848 z M 44.095968,191.94934 v -16.56458 h 4.351996 4.351995 v 1.58561 1.58562 h -2.786626 c -2.077413,0 -2.807234,0.0206 -2.867595,0.081 -0.11782,0.11782 -0.11782,26.57442 0,26.69224 0.06036,0.0604 0.790182,0.081 2.867595,0.081 h 2.786626 v 1.55187 1.55188 h -4.351995 -4.351996 z m 23.480536,15.01269 v -1.55187 h 2.786627 c 2.077413,0 2.807234,-0.0206 2.867594,-0.081 0.11782,-0.11782 0.11782,-26.57442 0,-26.69224 -0.06036,-0.0604 -0.790181,-0.081 -2.867594,-0.081 h -2.786627 v -1.58562 -1.58561 h 4.351996 4.351996 v 16.56458 16.56457 H 71.9285 67.576504 Z M 53.069851,191.94934 v -1.58561 h 7.118381 7.118381 v 1.58561 1.58561 h -7.118381 -7.118381 z"
         id="path27"
         inkscape:connector-curvature="0" />
      <path
         style="fill:#595959;stroke-width:0.0674728"
         d="m 111.70372,217.41627 c -1.3342,-0.14745 -3.02635,-0.69978 -4.07338,-1.32959 -0.53908,-0.32427 -1.3577,-0.97151 -1.48134,-1.17121 -0.0529,-0.0854 0.18567,-0.59118 1.08124,-2.29266 1.11584,-2.11996 1.15568,-2.18439 1.37748,-2.22749 0.72287,-0.14048 0.67597,-0.14824 1.07231,0.17741 1.0059,0.82646 2.42413,1.26184 3.62091,1.11158 1.19922,-0.15058 1.9364,-0.79729 2.72272,-2.38859 0.25884,-0.52383 0.47063,-1.02118 0.47063,-1.10522 0,-0.084 -2.15975,-5.29081 -4.79943,-11.57062 -2.63969,-6.2798 -4.82815,-11.49953 -4.86326,-11.5994 -0.0549,-0.15624 -0.0251,-0.23861 0.2138,-0.59038 l 0.27761,-0.40882 h 2.92857 c 2.26921,0 2.94068,0.019 2.98233,0.0843 0.0296,0.0464 1.53158,3.67706 3.33779,8.06815 1.80622,4.3911 3.30247,8.00224 3.32499,8.02477 0.0225,0.0225 0.0711,0.0108 0.1079,-0.026 0.0368,-0.0368 1.54027,-3.62904 3.34099,-7.98273 1.80073,-4.35369 3.30449,-7.97266 3.34169,-8.04216 0.0644,-0.12028 0.19766,-0.12638 2.76417,-0.12638 3.04252,0 2.77458,-0.0478 3.12955,0.55794 l 0.17686,0.30178 -5.50505,13.1426 c -3.02777,7.22843 -5.68279,13.49717 -5.90003,13.93054 -1.10062,2.19561 -2.71268,3.91117 -4.40611,4.68898 -0.64173,0.29475 -1.47405,0.55208 -2.19513,0.67864 -0.73627,0.12923 -2.29596,0.1776 -3.04781,0.0945 z m 23.85013,-0.54433 -0.30212,-0.27848 v -16.00761 -16.0076 l 0.30212,-0.27848 0.30212,-0.27849 h 2.50687 2.50689 l 0.29475,0.29475 0.29475,0.29475 v 0.71734 c 0,0.49837 0.0238,0.71735 0.0781,0.71735 0.043,0 0.23273,-0.11806 0.42171,-0.26236 1.22114,-0.93239 2.68729,-1.56019 4.28121,-1.83319 2.7213,-0.4661 5.50572,-0.0579 7.90143,1.15839 3.66028,1.8583 5.90166,5.42958 6.2838,10.01225 0.17735,2.12684 -0.14339,4.55633 -0.83946,6.3587 -1.29127,3.34353 -3.76413,5.73916 -7.05455,6.83424 -2.50562,0.83389 -5.24921,0.87692 -7.63113,0.11969 -0.79428,-0.25251 -1.93333,-0.82696 -2.58061,-1.30145 -0.26917,-0.19731 -0.51218,-0.34479 -0.54001,-0.32772 -0.0278,0.0171 -0.0506,2.20891 -0.0506,4.87076 v 4.83973 l -0.32281,0.31796 -0.32282,0.31796 h -2.61376 -2.61376 z m 13.8476,-13.99536 c 2.31851,-0.58274 3.93509,-2.46092 4.37318,-5.08087 0.16946,-1.01345 0.1126,-2.62714 -0.12447,-3.53245 -0.60413,-2.30705 -2.09349,-3.86528 -4.26288,-4.46002 -0.77343,-0.21203 -2.44761,-0.20693 -3.23869,0.01 -2.14687,0.58835 -3.62369,2.12621 -4.26198,4.43815 -0.17353,0.62855 -0.1841,0.74832 -0.18391,2.08381 0,1.32654 0.0118,1.45997 0.18205,2.09165 0.21207,0.78683 0.60412,1.64013 1.02377,2.22821 0.36796,0.51566 1.17555,1.27349 1.67755,1.5742 1.38008,0.8267 3.1535,1.06515 4.81538,0.64745 z m 54.87496,6.06541 c -2.82696,-0.27091 -4.77696,-0.91964 -6.78683,-2.25789 -1.01018,-0.67261 -2.31599,-1.97838 -2.9885,-2.9884 -1.0277,-1.54348 -1.62764,-3.04874 -1.97901,-4.96535 -0.11729,-0.63978 -0.14311,-1.05417 -0.14712,-2.36155 -0.004,-1.37735 0.0157,-1.70081 0.15209,-2.46275 0.71982,-4.02294 2.95912,-7.10834 6.41616,-8.84049 4.09686,-2.05272 9.37751,-1.64953 12.97155,0.99041 0.74279,0.54559 1.86797,1.69605 2.43292,2.48757 1.59643,2.23665 2.4569,5.4144 2.31077,8.53373 -0.0261,0.55665 -0.0678,1.13354 -0.0927,1.28198 l -0.0453,0.26989 -8.73659,0.0337 -8.73658,0.0337 0.0188,0.16868 c 0.0103,0.0928 0.15233,0.44362 0.3156,0.77965 1.07978,2.22239 3.30195,3.47093 6.17677,3.47047 2.19081,-3.4e-4 3.84335,-0.61398 5.31178,-1.97236 0.41286,-0.38191 0.4268,-0.38852 0.81907,-0.38852 0.28252,0 0.43936,0.0345 0.53702,0.11807 0.25028,0.21421 3.04822,3.59996 3.04822,3.68861 0,0.14141 -0.91802,1.15955 -1.47449,1.63529 -1.80297,1.54142 -4.20431,2.484 -6.92588,2.71854 -0.75621,0.0652 -2.05791,0.0787 -2.5977,0.0269 z m 6.00276,-15.28897 c -0.003,-0.20998 -0.33365,-1.0282 -0.62366,-1.54429 -0.68544,-1.21978 -1.94947,-2.178 -3.38865,-2.56882 -0.45305,-0.12303 -0.71867,-0.14641 -1.65309,-0.14551 -1.01817,9.8e-4 -1.1649,0.0168 -1.71723,0.1852 -1.55435,0.4739 -2.66477,1.37012 -3.40221,2.74594 -0.29836,0.55663 -0.57347,1.31646 -0.51243,1.41524 0.0245,0.0396 2.1894,0.0641 5.66959,0.0641 h 5.63 l -0.002,-0.15182 z m -128.501148,14.71735 -0.30212,-0.27848 v -16.31124 -16.31123 l 0.30212,-0.27848 0.30212,-0.27849 h 2.618615 2.618615 l 0.31796,0.32282 0.317959,0.32281 v 5.14248 c 0,3.3003 0.0236,5.14249 0.06588,5.14249 0.03623,0 0.271544,-0.13894 0.522915,-0.30876 2.663323,-1.79924 6.84827,-2.28135 10.168445,-1.17142 3.173819,1.061 5.247409,3.53521 5.969059,7.12228 0.26267,1.30566 0.27685,1.78143 0.27685,9.29187 v 7.31487 l -0.30212,0.27848 -0.30212,0.27848 h -2.61861 -2.61862 l -0.317959,-0.32281 -0.317959,-0.32281 -6.75e-4,-6.74497 c -6.75e-4,-7.38601 -0.0062,-7.51173 -0.396288,-8.64345 -0.26286,-0.76261 -0.561542,-1.23678 -1.099746,-1.74587 -0.79713,-0.75401 -1.599159,-1.04082 -3.057982,-1.09357 -3.125901,-0.11301 -5.04198,1.33131 -5.787455,4.36253 -0.13873,0.5641 -0.142664,0.73569 -0.16563,7.22389 l -0.02352,6.64607 -0.315327,0.3205 -0.315327,0.32049 h -2.618615 -2.618616 l -0.302119,-0.27848 z m 83.126498,0 -0.30212,-0.27848 v -16.31124 -16.31123 l 0.30212,-0.27848 0.30212,-0.27849 h 2.61861 2.61862 l 0.31796,0.32282 0.31796,0.32281 v 5.14248 c 0,3.3003 0.0236,5.14249 0.0659,5.14249 0.0362,0 0.27154,-0.13894 0.52291,-0.30876 2.66332,-1.79924 6.84827,-2.28135 10.16844,-1.17142 3.17382,1.061 5.24742,3.53521 5.96907,7.12228 0.26267,1.30566 0.27684,1.78143 0.27684,9.29187 v 7.31487 l -0.30212,0.27848 -0.30211,0.27848 h -2.61862 -2.61862 l -0.31796,-0.32281 -0.31795,-0.32281 -6.8e-4,-6.74497 c -6.7e-4,-7.38601 -0.006,-7.51173 -0.39629,-8.64345 -0.26286,-0.76261 -0.56154,-1.23678 -1.09974,-1.74587 -0.79713,-0.75401 -1.59916,-1.04082 -3.05799,-1.09357 -3.1259,-0.11301 -5.04198,1.33131 -5.78745,4.36253 -0.13873,0.5641 -0.14266,0.73569 -0.16563,7.22389 l -0.0235,6.64607 -0.31533,0.3205 -0.31533,0.32049 h -2.61862 -2.61861 l -0.30212,-0.27848 z m 56.27232,0 -0.30212,-0.27848 v -11.75682 -11.75682 l 0.30212,-0.27848 0.30212,-0.27849 h 2.50688 2.50688 l 0.29475,0.29475 0.29475,0.29475 v 0.71734 c 0,0.42537 0.027,0.71735 0.0664,0.71735 0.0365,0 0.30218,-0.16979 0.59038,-0.37731 2.64337,-1.90335 6.95717,-2.44632 10.37036,-1.30529 3.17382,1.061 5.24742,3.53521 5.96907,7.12228 0.26267,1.30566 0.27684,1.78143 0.27684,9.29187 v 7.31487 l -0.30212,0.27848 -0.30211,0.27848 h -2.61862 -2.61862 l -0.31796,-0.32281 -0.31795,-0.32281 -6.8e-4,-6.74497 c -6.7e-4,-7.38601 -0.006,-7.51173 -0.39629,-8.64345 -0.26286,-0.76261 -0.56154,-1.23678 -1.09974,-1.74587 -0.48533,-0.45907 -1.04113,-0.76389 -1.74986,-0.95968 -0.66932,-0.18489 -2.60077,-0.16295 -3.3284,0.0378 -2.16878,0.59842 -3.47201,2.206 -3.84551,4.74356 -0.0899,0.61068 -0.10556,1.6527 -0.10556,7.01971 v 6.30259 l -0.32281,0.31795 -0.32282,0.31796 h -2.61376 -2.61376 l -0.30212,-0.27848 z"
         id="path25"
         inkscape:connector-curvature="0" />
      <path
         style="fill:#000000;stroke-width:0.0674728"
         d="m 111.97013,217.35353 c -1.80043,-0.17154 -3.54052,-0.76751 -4.76243,-1.63112 -0.41575,-0.29384 -0.91261,-0.71979 -0.99487,-0.85289 -0.0422,-0.0683 2.13947,-4.2955 2.2532,-4.36578 0.0302,-0.0187 0.2357,-0.0529 0.45657,-0.076 0.39318,-0.0411 0.40885,-0.0363 0.74721,0.23121 1.07254,0.8478 2.50861,1.27749 3.68481,1.10255 0.94929,-0.14119 1.61742,-0.58912 2.22133,-1.48923 0.31405,-0.46809 0.7649,-1.36285 0.94754,-1.8805 l 0.0922,-0.26141 -4.88754,-11.63054 -4.88753,-11.63055 0.25664,-0.37341 0.25665,-0.37341 2.87449,-0.0176 c 2.2486,-0.0138 2.88932,9.3e-4 2.94258,0.0675 0.0374,0.0468 1.55096,3.69411 3.36337,8.10518 1.81241,4.41106 3.33557,8.03557 3.3848,8.05446 0.0492,0.0189 0.10391,0.0199 0.1215,0.002 0.0176,-0.0176 1.52399,-3.64211 3.34752,-8.05446 1.82354,-4.41236 3.34487,-8.06042 3.38073,-8.10681 0.0502,-0.0649 0.67622,-0.0843 2.72147,-0.0843 h 2.65626 l 0.23837,0.32049 c 0.17586,0.23644 0.23226,0.37359 0.21505,0.52292 -0.0225,0.19516 -10.27002,24.734 -11.01717,26.38186 -1.57241,3.46796 -3.84329,5.43462 -6.84292,5.92622 -0.81844,0.13413 -2.03071,0.18371 -2.76987,0.11329 z m 23.63301,-0.55989 -0.28394,-0.28931 v -15.92385 -15.92385 l 0.28932,-0.28394 0.28931,-0.28393 h 2.44484 2.44484 l 0.30212,0.27848 0.30212,0.27848 v 0.72963 c 0,0.45779 0.0276,0.74671 0.0742,0.77549 0.0408,0.0252 0.15467,-0.0172 0.25302,-0.0942 1.3723,-1.07505 2.84849,-1.73472 4.57141,-2.04283 1.04386,-0.18668 3.01277,-0.20393 4.07523,-0.0357 2.62808,0.4161 4.77717,1.46801 6.50453,3.18373 2.30826,2.29273 3.50197,5.41726 3.50461,9.17327 0.001,1.83531 -0.22373,3.28438 -0.74269,4.78268 -1.45017,4.18683 -4.77476,6.9272 -9.26643,7.63811 -1.05129,0.16639 -2.9726,0.15297 -3.9809,-0.0278 -1.48122,-0.26555 -3.03214,-0.9046 -4.03595,-1.66298 -0.27149,-0.20511 -0.53717,-0.37294 -0.59038,-0.37294 -0.0831,0 -0.0968,0.68965 -0.0968,4.90066 v 4.90066 l -0.29474,0.29475 -0.29475,0.29474 h -2.59254 -2.59253 z m 13.7566,-13.82057 c 2.6215,-0.65576 4.33156,-2.85816 4.5793,-5.89773 0.31664,-3.88472 -1.75286,-6.91958 -5.08506,-7.45712 -0.70632,-0.11394 -2.08589,-0.0493 -2.75797,0.12925 -2.9862,0.79328 -4.79154,3.73445 -4.49916,7.3298 0.14625,1.79839 0.77246,3.24789 1.88194,4.35612 0.93171,0.93067 2.07811,1.48781 3.46258,1.68279 0.62055,0.0874 1.76846,0.0195 2.41837,-0.14311 z m 54.74799,5.87656 c -4.60127,-0.40972 -8.14998,-2.56787 -10.14899,-6.17212 -1.93892,-3.49591 -2.06581,-8.38816 -0.31324,-12.07763 0.96508,-2.03167 2.22322,-3.49804 4.0547,-4.72574 3.52419,-2.36241 8.47916,-2.69685 12.37605,-0.83534 4.36169,2.08353 6.86322,6.84869 6.48373,12.35083 -0.0414,0.59981 -0.0912,1.11648 -0.11082,1.14817 -0.0196,0.0317 -3.95157,0.0576 -8.73774,0.0576 -7.2367,0 -8.70801,0.0153 -8.73703,0.091 -0.0557,0.14509 0.28725,0.97608 0.62924,1.52478 1.21648,1.95175 3.27208,2.97187 5.9885,2.97187 2.21504,0 3.84478,-0.61023 5.37355,-2.01204 0.36,-0.33011 0.4001,-0.3489 0.7422,-0.34793 0.1989,5.4e-4 0.39402,0.0233 0.4336,0.0506 0.0396,0.0273 0.74868,0.86226 1.57579,1.85555 l 1.50383,1.80598 -0.11736,0.18447 c -0.24233,0.38087 -1.70168,1.75008 -2.2646,2.12471 -1.95529,1.30128 -4.21501,1.95898 -6.99506,2.03596 -0.58389,0.0162 -1.36525,0.002 -1.73635,-0.0307 z m 6.22443,-15.23034 c -0.0543,-0.39787 -0.4262,-1.29061 -0.73771,-1.77116 -0.35133,-0.54195 -1.10501,-1.30281 -1.63292,-1.64848 -0.54978,-0.35999 -1.37937,-0.68319 -2.09951,-0.81795 -0.81088,-0.15174 -2.21073,-0.10324 -2.92335,0.10128 -1.63183,0.46834 -2.85488,1.47847 -3.58759,2.96301 -0.30604,0.62007 -0.49891,1.19271 -0.44713,1.32762 0.0328,0.0855 0.79937,0.0987 5.75033,0.0987 h 5.71245 z m -128.504846,14.67278 -0.283939,-0.28932 v -16.22747 -16.22747 l 0.289313,-0.28394 0.289313,-0.28394 h 2.587159 2.587159 l 0.29475,0.29475 0.294749,0.29475 v 5.16656 c 0,3.29383 0.02392,5.18135 0.06598,5.20735 0.03629,0.0224 0.287247,-0.10853 0.55768,-0.29102 1.513532,-1.02132 3.285165,-1.59467 5.460414,-1.76715 1.089733,-0.0864 2.383997,-0.009 3.44222,0.20549 3.622788,0.7348 6.083178,3.08481 7.026908,6.71164 0.42642,1.63878 0.40828,1.2377 0.4329,9.5758 l 0.0225,7.61909 -0.28667,0.2921 -0.28666,0.29209 h -2.59254 -2.592535 l -0.294748,-0.29475 -0.294748,-0.29475 v -6.80676 c 0,-7.16087 -0.0083,-7.37851 -0.308014,-8.39237 -0.343861,-1.16312 -1.133873,-2.1368 -2.126513,-2.62092 -0.819491,-0.39967 -1.449215,-0.5072 -2.719127,-0.46431 -1.190052,0.0402 -1.640149,0.14019 -2.50424,0.55632 -1.624964,0.78256 -2.625581,2.32494 -2.930486,4.51712 -0.04718,0.33725 -0.07232,2.73293 -0.07232,6.86448 v 6.34644 l -0.294749,0.29475 -0.29475,0.29475 h -2.592532 -2.592533 z m 83.126496,0 -0.28394,-0.28932 v -16.22747 -16.22747 l 0.28932,-0.28394 0.28931,-0.28394 h 2.58715 2.58717 l 0.29475,0.29475 0.29474,0.29475 v 5.16656 c 0,3.29383 0.0239,5.18135 0.066,5.20735 0.0363,0.0224 0.28724,-0.10853 0.55768,-0.29102 1.51353,-1.02132 3.28516,-1.59467 5.46041,-1.76715 1.08973,-0.0864 2.384,-0.009 3.44222,0.20549 3.62278,0.7348 6.08318,3.08481 7.0269,6.71164 0.42642,1.63878 0.40829,1.2377 0.43291,9.5758 l 0.0225,7.61909 -0.28667,0.2921 -0.28667,0.29209 h -2.59253 -2.59254 l -0.29474,-0.29475 -0.29475,-0.29475 v -6.80676 c 0,-7.16087 -0.008,-7.37851 -0.30802,-8.39237 -0.34386,-1.16312 -1.13387,-2.1368 -2.12651,-2.62092 -0.81949,-0.39967 -1.44921,-0.5072 -2.71913,-0.46431 -1.19005,0.0402 -1.64014,0.14019 -2.50424,0.55632 -1.62496,0.78256 -2.62558,2.32494 -2.93048,4.51712 -0.0469,0.33725 -0.0721,2.73293 -0.0721,6.86448 v 6.34644 l -0.29474,0.29475 -0.29475,0.29475 h -2.59254 -2.59253 l -0.28394,-0.28931 z m 56.27232,0 -0.28394,-0.28932 v -11.66768 -11.66769 l 0.28394,-0.28931 0.28394,-0.28931 h 2.45022 2.45021 l 0.30212,0.27848 0.30212,0.27848 v 0.72963 c 0,0.42606 0.0288,0.74743 0.0692,0.77242 0.0381,0.0235 0.2734,-0.10724 0.52292,-0.29061 1.30807,-0.9613 2.90176,-1.59286 4.7382,-1.87767 1.05223,-0.16318 3.04035,-0.14753 4.04836,0.0319 1.14751,0.20424 1.89427,0.43978 2.80809,0.88573 2.34624,1.14499 3.91884,3.148 4.63628,5.90521 0.42642,1.63878 0.40829,1.2377 0.43291,9.5758 l 0.0225,7.61909 -0.28667,0.2921 -0.28667,0.29209 h -2.59253 -2.59254 l -0.29474,-0.29475 -0.29475,-0.29475 v -6.80676 c 0,-7.16087 -0.008,-7.37851 -0.30802,-8.39237 -0.34386,-1.16312 -1.13387,-2.1368 -2.12651,-2.62092 -0.81949,-0.39967 -1.44921,-0.5072 -2.71913,-0.46431 -1.18953,0.0402 -1.63956,0.14008 -2.50424,0.55591 -1.61382,0.77609 -2.62119,2.3286 -2.93271,4.51976 -0.0407,0.28599 -0.0677,2.98453 -0.0685,6.8405 l -0.001,6.36819 -0.29475,0.29475 -0.29475,0.29475 h -2.59253 -2.59253 l -0.28394,-0.28931 z"
         id="path23"
         inkscape:connector-curvature="0" />
    </g>
  </g>
</svg>
